<svg xmlns="http://www.w3.org/2000/svg" width="120" height="103" viewBox="0 0 120 103"><defs><linearGradient id="a" x1="168.704%" x2="0%" y1="-56.368%" y2="100%"><stop offset="0%" stop-color="#F06131"/><stop offset="100%" stop-color="#F3FBFF"/></linearGradient><linearGradient id="b" x1="172.45%" x2="0%" y1="-59.84%" y2="100%"><stop offset="0%" stop-color="#52BEF8"/><stop offset="100%" stop-color="#F3FBFF"/></linearGradient></defs><g fill="none" fill-rule="evenodd"><g fill-opacity=".6" opacity=".5"><path fill="url(#a)" d="M34.078 29.375c-2.34-3.65-7.272-4.741-10.96-2.424L3.679 39.166c-3.687 2.317-4.789 7.199-2.449 10.85 2.34 3.65 7.272 4.74 10.959 2.424l19.44-12.215c3.687-2.318 4.79-7.2 2.45-10.85M101.842 53c-2.34-3.65-7.271-4.74-10.959-2.423.114-.072.217-.152.325-.228-3.644 2.044-8.344.92-10.612-2.619-2.269-3.538-1.295-8.227 2.124-10.621-.115.064-.232.122-.346.193l17.207-10.81c3.686-2.318 4.788-7.2 2.449-10.85-2.34-3.65-7.272-4.742-10.958-2.425L33.866 49.162c-3.687 2.316-4.79 7.199-2.449 10.85 2.34 3.649 7.27 4.74 10.958 2.423l2.458-1.544c3.688-2.317 8.618-1.226 10.959 2.425 2.34 3.65 1.238 8.532-2.45 10.85L33.679 86.52c-3.687 2.316-4.789 7.199-2.449 10.85 2.34 3.65 7.271 4.74 10.959 2.424L99.393 63.85c3.687-2.317 4.79-7.199 2.45-10.85"/><path fill="url(#b)" d="M70.246 1.83c-1.33 0-2.412 1.072-2.412 2.388 0 1.316 1.082 2.388 2.412 2.388 1.33 0 2.412-1.072 2.412-2.388 0-1.316-1.082-2.388-2.412-2.388m0 6.284c-2.17 0-3.935-1.748-3.935-3.896 0-2.148 1.765-3.895 3.935-3.895s3.935 1.747 3.935 3.895c0 2.148-1.765 3.896-3.935 3.896m3.935 88.957h-3.174V93.93a.757.757 0 0 0-.761-.754.757.757 0 0 0-.762.754v3.142h-3.173a.757.757 0 0 0-.762.754c0 .417.341.754.762.754h3.173v3.142c0 .416.341.754.762.754.42 0 .761-.338.761-.754V98.58h3.174c.42 0 .761-.337.761-.754a.757.757 0 0 0-.761-.754m44.612-53.481h-3.174v-3.142a.757.757 0 0 0-.761-.754.757.757 0 0 0-.762.754v3.142h-3.173a.757.757 0 0 0-.762.754c0 .416.34.754.762.754h3.173v3.142c0 .416.34.753.762.753.42 0 .761-.337.761-.753v-3.142h3.174c.42 0 .761-.338.761-.754a.757.757 0 0 0-.761-.754"/></g><g fill="#F06131" fill-rule="nonzero"><path d="M64.273 43.34h-23.08a1.42 1.42 0 0 0-1.421 1.421 1.42 1.42 0 0 0 1.421 1.421h23.08a1.42 1.42 0 0 0 1.421-1.42 1.42 1.42 0 0 0-1.42-1.422zm-23.08-9.343h23.08a1.42 1.42 0 0 0 1.421-1.42 1.42 1.42 0 0 0-1.42-1.422h-23.08a1.42 1.42 0 0 0-1.422 1.421c0 .776.635 1.421 1.421 1.421zm23.08 3.246h-23.08a1.42 1.42 0 0 0-1.421 1.42 1.42 1.42 0 0 0 1.421 1.422h23.08a1.42 1.42 0 0 0 1.421-1.421 1.42 1.42 0 0 0-1.42-1.421z"/><path d="M71.066 43.008V29.522a4.116 4.116 0 0 0-4.112-4.112H38.512a4.116 4.116 0 0 0-4.112 4.112v18.293a4.116 4.116 0 0 0 4.112 4.112h.554v7.509c0 .574.353 1.078.877 1.31.373.161 1.15.09 1.552-.312l8.517-8.517h2.086a12.082 12.082 0 0 0-1.169 5.14c0 7.862 7.78 14.252 17.336 14.252 1.199 0 2.398-.101 3.588-.303l7.105 5.312c.323.322 1.099.322 1.492.13a1.41 1.41 0 0 0 .786-1.27v-8.657c2.822-2.6 4.364-5.946 4.364-9.464 0-7.085-6.158-12.94-14.534-14.05zm-21.649 6.067c-.373 0-.735.151-1.008.413l-6.5 6.501v-5.503a1.42 1.42 0 0 0-1.421-1.421h-1.976a1.26 1.26 0 0 1-1.26-1.26V29.522c0-.695.565-1.26 1.26-1.26h28.452c.696 0 1.26.565 1.26 1.26v18.293a1.26 1.26 0 0 1-1.26 1.26H49.417zm29.47 15.733a1.413 1.413 0 0 0-.503 1.088v6.46l-5.332-3.98a1.413 1.413 0 0 0-1.129-.252 18.7 18.7 0 0 1-3.658.373c-7.993 0-14.494-5.12-14.494-11.41 0-1.793.545-3.557 1.573-5.14h11.63a4.116 4.116 0 0 0 4.113-4.112V45.9c6.662 1.038 11.68 5.735 11.68 11.188-.01 2.852-1.38 5.603-3.88 7.72z"/><path d="M60.645 55.677H60a1.42 1.42 0 0 0-1.421 1.42A1.42 1.42 0 0 0 60 58.52h.645a1.42 1.42 0 0 0 1.421-1.421 1.42 1.42 0 0 0-1.421-1.421zm8.678 0h-.645a1.42 1.42 0 0 0-1.421 1.42 1.42 1.42 0 0 0 1.42 1.422h.646a1.42 1.42 0 0 0 1.42-1.421 1.413 1.413 0 0 0-1.42-1.421zm8.687 0h-.644a1.42 1.42 0 0 0-1.421 1.42 1.42 1.42 0 0 0 1.42 1.422h.646a1.42 1.42 0 0 0 1.42-1.421 1.42 1.42 0 0 0-1.42-1.421z"/></g></g></svg>