<svg xmlns="http://www.w3.org/2000/svg" width="24" height="24" viewBox="0 0 24 24"><g fill="none" fill-rule="evenodd"><path stroke="#000" stroke-linecap="round" stroke-linejoin="round" stroke-width="1.5" d="M5 9.25h14"/><path fill="#000" fill-rule="nonzero" d="M15.754 12c.412 0 .746.336.746.75a.75.75 0 0 1-.675.747l-.079.003a.748.748 0 0 1-.746-.75c0-.39.296-.71.675-.747l.079-.003zm-3.75 0c.412 0 .746.336.746.75a.75.75 0 0 1-.675.747l-.079.003a.748.748 0 0 1-.746-.75c0-.39.296-.71.675-.747l.079-.003zm-3.75 0c.412 0 .746.336.746.75a.75.75 0 0 1-.675.747l-.079.003a.748.748 0 0 1-.746-.75c0-.39.296-.71.675-.747L8.254 12zm7.5 3c.412 0 .746.336.746.75a.75.75 0 0 1-.675.747l-.079.003a.748.748 0 0 1-.746-.75c0-.39.296-.71.675-.747l.079-.003zm-3.75 0c.412 0 .746.336.746.75a.75.75 0 0 1-.675.747l-.079.003a.748.748 0 0 1-.746-.75c0-.39.296-.71.675-.747l.079-.003zm-4.137.098c.33-.19.75-.096.968.205l.038.059.027.046a.721.721 0 0 1-.267.994.742.742 0 0 1-.968-.205l-.038-.059-.027-.046a.721.721 0 0 1 .267-.994z"/><path stroke="#000" stroke-linecap="round" stroke-linejoin="round" stroke-width="1.5" d="M15.075 3.5v2.633M8.835 3.5v2.633"/><path stroke="#000" stroke-linecap="round" stroke-linejoin="round" stroke-width="1.527" d="M15.296 5H8.711C6.427 5 5 6.332 5 8.78v7.37C5 18.637 6.427 20 8.71 20h6.58c2.29 0 3.71-1.34 3.71-3.789v-7.43C19.007 6.332 17.588 5 15.296 5z"/></g></svg>