<svg xmlns="http://www.w3.org/2000/svg" width="24" height="24" viewBox="0 0 24 24"><g fill="none" fill-rule="evenodd" stroke="#000" stroke-linecap="round" stroke-linejoin="round"><path stroke-width="1.532" d="M15.458 20H8.535c-2.543 0-4.494-.905-3.94-4.549l.645-4.937C5.582 8.696 6.758 8 7.79 8h8.442c1.048 0 2.156.748 2.55 2.514l.646 4.937c.47 3.232-1.427 4.549-3.97 4.549z"/><path stroke-width="1.519" d="M15.5 8c0-1.933-1.564-3.5-3.493-3.5a3.49 3.49 0 0 0-2.479 1.02A3.506 3.506 0 0 0 8.5 8"/><path stroke-width="1.5" d="M14.237 11.681H14.2m-4.627 0h-.037"/></g></svg>