<?xml version="1.0" standalone="no"?>
<!DOCTYPE svg PUBLIC "-//W3C//DTD SVG 1.1//EN" "http://www.w3.org/Graphics/SVG/1.1/DTD/svg11.dtd">
<svg xmlns="http://www.w3.org/2000/svg">
<metadata>Generated by Fontastic.me</metadata>
<defs>
<font id="spotlight-icon-set" horiz-adv-x="512">
<font-face font-family="spotlight-icon-set" units-per-em="512" ascent="480" descent="-32"/>
<missing-glyph horiz-adv-x="512" />

<glyph glyph-name="spoticon-arrow-right-dark" unicode="&#97;" d="M133 53c-9-12-6-29 6-38 12-9 29-7 38 5l177 236-177 236c-9 12-26 14-38 5-12-9-15-26-6-38l153-203z"/>
<glyph glyph-name="spoticon-arrow-up-dark-1" unicode="&#98;" d="M462 148c13-9 30-6 39 6 9 12 6 29-6 38l-236 177-235-177c-13-9-15-26-6-38 9-12 26-15 38-6l203 153z"/>
<glyph glyph-name="spoticon-edit" unicode="&#99;" d="M196 46c-1-1-2-2-4-2 0 0 0-1-1-1-1-1-2-1-3-2l-166-40c-1 0-2-1-4-1-5 0-9 2-13 5-4 4-6 11-5 17l41 165c0 2 1 3 1 4 0 0 1 0 1 1 1 1 1 2 2 3 1 0 96 96 287 286 41 41 108 41 149 0 41-41 41-108 0-149z m-48 22l-79 80-27-106z m35 16l229 229-99 99-229-229z m273 372c-13 13-31 21-50 21-18 0-35-8-49-21l-20-19 100-99 19 19c27 27 27 72 0 99z"/>
<glyph glyph-name="spoticon-more" unicode="&#100;" d="M256 0c-24 0-43 19-43 43 0 23 19 42 43 42 24 0 43-19 43-42 0-24-19-43-43-43z m0 213c-24 0-43 19-43 43 0 24 19 43 43 43 24 0 43-19 43-43 0-24-19-43-43-43z m0 214c-24 0-43 19-43 42 0 24 19 43 43 43 24 0 43-19 43-43 0-23-19-42-43-42z"/>
<glyph glyph-name="spoticon-order-down" unicode="&#101;" d="M226 83l-145 108c-10 8-24 6-31-4-8-10-6-24 4-32l181-135c8-6 19-6 27 0l181 135c10 8 12 22 4 32-7 10-21 12-31 4l-145-108 0 384c0 12-10 22-23 22-12 0-22-10-22-22z"/>
<glyph glyph-name="spoticon-order-up" unicode="&#102;" d="M288 440l154-115c10-8 25-6 33 5 8 10 6 25-5 33l-192 144c-8 7-20 7-28 0l-192-144c-11-8-13-23-5-33 8-11 23-13 33-5l154 115 0-408c0-13 11-24 24-24 13 0 24 11 24 24z"/>
<glyph glyph-name="spoticon-page" unicode="&#103;" d="M114 469c-8 0-14-6-14-14l0-398c0-8 6-14 14-14l284 0c8 0 14 6 14 14l0 398c0 8-6 14-14 14z m0 29l284 0c24 0 43-19 43-43l0-398c0-24-19-43-43-43l-284 0c-24 0-43 19-43 43l0 398c0 24 19 43 43 43z m28-294l157 0c8 0 14 7 14 15 0 7-6 14-14 14l-157 0c-8 0-14-7-14-14 0-8 6-15 14-15z m0-49l214 0c7 0 14 6 14 14 0 8-7 14-14 14l-214 0c-8 0-14-6-14-14 0-8 6-14 14-14z m0-50l214 0c7 0 14 6 14 14 0 8-7 14-14 14l-214 0c-8 0-14-6-14-14 0-8 6-14 14-14z"/>
<glyph glyph-name="spoticon-changelog" unicode="&#104;" d="M381 288c0 33-13 65-37 88-23 24-55 37-88 37l-160 0c-16 0-29-13-29-29l0-320c0-16 13-29 29-29l256 0c16 0 29 13 29 29z m32-189l3 0c16 0 29 13 29 29l0 224c0 33-13 65-37 88-23 24-55 37-88 37l-160 0c-16 0-29-13-29-29l0-3 125 0c42 0 81-17 111-46 29-30 46-69 46-111z m0-32l0-3c0-34-27-61-61-61l-256 0c-34 0-61 27-61 61l0 320c0 34 27 61 61 61l3 0 0 3c0 34 27 61 61 61l160 0c42 0 81-17 111-46 29-30 46-69 46-111l0-224c0-34-27-61-61-61z m-285 176l160 0c7 0 13 6 13 13 0 7-6 13-13 13l-160 0c-7 0-13-6-13-13 0-7 6-13 13-13z m0-64l192 0c7 0 13 6 13 13 0 7-6 13-13 13l-192 0c-7 0-13-6-13-13 0-7 6-13 13-13z m0-64l192 0c7 0 13 6 13 13 0 7-6 13-13 13l-192 0c-7 0-13-6-13-13 0-7 6-13 13-13z"/>
<glyph glyph-name="spoticon-post-changelog" unicode="&#105;" d="M347 163l0 112c0 24-10 48-27 65-17 18-40 28-64 28l-72 0 0 1c0 10 7 17 16 17l93 0c19 0 38-7 51-21 14-14 21-33 21-52l0-133c0-9-7-17-16-17z m0-19l2 0c19 0 35 17 35 36l0 133c0 24-10 48-27 65-17 18-40 27-64 27l-93 0c-19 0-35-16-35-36l0-1-2 0c-19 0-35-17-35-36l0-189c0-20 16-36 35-36l149 0c19 0 35 16 35 36z m165 112c0-141-115-256-256-256-141 0-256 115-256 256 0 141 115 256 256 256 141 0 256-115 256-256z m-330-8c-4 0-8 4-8 8 0 4 4 8 8 8l93 0c4 0 7-4 7-8 0-4-3-8-7-8z m0-37c-4 0-8 3-8 7 0 4 4 8 8 8l111 0c4 0 8-4 8-8 0-4-4-7-8-7z m0-38c-4 0-8 3-8 7 0 5 4 8 8 8l111 0c4 0 8-3 8-8 0-4-4-7-8-7z"/>
<glyph glyph-name="spoticon-article" unicode="&#106;" d="M457 329l0-256c0-30-24-55-55-55l-292 0c-31 0-55 25-55 55l0 366c0 30 24 55 55 55l183 0c43 0 85-18 116-48 31-31 48-73 48-117z m-36 0c0 34-14 67-38 91-24 24-56 37-90 37l-183 0c-10 0-19-8-19-18l0-366c0-10 9-18 19-18l292 0c10 0 19 8 19 18z m-275-55c-10 0-18 8-18 19 0 10 8 18 18 18l110 0c10 0 18-8 18-18 0-11-8-19-18-19z m0-73c-10 0-18 8-18 18 0 11 8 19 18 19l220 0c10 0 18-8 18-19 0-10-8-18-18-18z m0-73c-10 0-18 8-18 18 0 10 8 19 18 19l220 0c10 0 18-9 18-19 0-10-8-18-18-18z"/>
<glyph glyph-name="spoticon-map" unicode="&#107;" d="M256 0c-38 58-66 90-83 97-26 11-50 27-69 47-39 39-64 93-64 152 0 119 97 216 216 216 119 0 216-97 216-216 0-59-25-113-64-152-19-20-43-36-69-47-17-7-45-39-83-97z m0 189c60 0 108 48 108 107 0 60-48 108-108 108-60 0-108-48-108-108 0-59 48-107 108-107z"/>
<glyph glyph-name="spoticon-dashboard" unicode="&#109;" d="M17 189c0 133 108 241 241 241 133 0 241-108 241-241 0-34-8-67-21-96l-34 0c15 29 24 62 24 96 0 116-94 210-210 210-116 0-210-94-210-210 0-34 9-67 24-96l-34 0c-13 29-21 62-21 96z m382 120l-103-104c2-4 3-10 3-16 0-22-18-41-41-41-23 0-41 19-41 41 0 23 18 41 41 41 6 0 11-1 16-3l104 104c6 6 15 6 21 0 6-6 6-16 0-22z m-75 13c-20 10-42 16-66 16-82 0-148-67-148-149 0-36 13-70 36-96l-39 0c-18 28-28 61-28 96 0 99 80 180 179 180 32 0 62-9 88-24z m67-67l23 23c15-26 23-56 23-89 0-35-10-68-28-96l-39 0c23 26 36 60 36 96 0 24-5 46-15 66z"/>
<glyph glyph-name="spoticon-content" unicode="&#110;" d="M280 38l194 0 0 195-194 0z m-226 0l194 0 0 195-194 0z m0 227l420 0 0 193-420 0z m436 225c9 0 17-7 17-16l0-452c0-9-8-17-17-17l-452 0c-9 0-16 8-16 17l0 452c0 9 7 16 16 16z m-182-428l144 0 0 32-144 0z m0 106l144 0 0 32-144 0z m0-53l144 0 0 32-144 0z"/>
<glyph glyph-name="spoticon-analytic" unicode="&#111;" d="M39 137l417 0 0 310-417 0z m433 342c9 0 16-7 16-16l0-342c0-9-7-16-16-16l-173 0 38-38c6-6 6-17 0-23-3-3-7-5-11-5-5 0-9 2-12 5l-54 54-54-54c-6-6-16-6-22 0-7 6-7 17 0 23l37 38-198 0c-9 0-16 7-16 16l0 342c0 9 7 16 16 16z m-358-299c9 0 16 7 16 16l0 83c0 9-7 16-16 16-9 0-16-7-16-16l0-83c0-9 7-16 16-16z m67 0c9 0 16 7 16 16l0 126c0 9-7 16-16 16-9 0-16-7-16-16l0-126c0-9 7-16 16-16z m67 0c8 0 16 7 16 16l0 40c0 8-8 16-16 16-9 0-17-8-17-16l0-40c0-9 8-16 17-16z m66 0c9 0 17 7 17 16l0 61c0 9-8 16-17 16-9 0-16-7-16-16l0-61c0-9 7-16 16-16z m67 0c9 0 16 7 16 16l0 83c0 9-7 16-16 16-9 0-16-7-16-16l0-83c0-9 7-16 16-16z"/>
<glyph glyph-name="spoticon-admin" unicode="&#112;" d="M446 46l-379 0 0 121c0 29 23 53 52 53l122 0 0-134c0-9 7-15 15-15l73 0 0 30-58 0 0 54 58 0 0 31-58 0 0 34 122 0c29 0 53-24 53-53z m-273 337c0 46 37 83 83 83 46 0 83-37 83-83 0-46-37-84-83-84-46 0-83 38-83 84z m220-133l-122 0 0 20c56 7 99 55 99 113 0 63-51 114-114 114-63 0-114-51-114-114 0-58 43-106 99-113l0-20-122 0c-46 0-83-37-83-83l0-136c0-9 7-16 15-16l410 0c8 0 15 7 15 16l0 136c0 46-37 83-83 83z"/>
<glyph glyph-name="spoticon-data" unicode="&#113;" d="M85 488c-6 0-12-6-12-13l0-48c0-7 6-13 12-13l342 0c6 0 12 6 12 13l0 48c0 7-6 13-12 13z m0 24l342 0c20 0 36-16 36-37l0-48c0-21-16-37-36-37l-342 0c-20 0-36 16-36 37l0 48c0 21 16 37 36 37z m28-85c13 0 24 11 24 24 0 14-11 24-24 24-14 0-25-10-25-24 0-13 11-24 25-24z m94 0c13 0 24 11 24 24 0 14-11 24-24 24-14 0-25-10-25-24 0-13 11-24 25-24z m94 0c13 0 24 11 24 24 0 14-11 24-24 24-14 0-25-10-25-24 0-13 11-24 25-24z m-216-72c-6 0-12-6-12-13l0-48c0-7 6-13 12-13l342 0c6 0 12 6 12 13l0 48c0 7-6 13-12 13z m0 24l342 0c20 0 36-16 36-37l0-48c0-21-16-37-36-37l-342 0c-20 0-36 16-36 37l0 48c0 21 16 37 36 37z m28-85c13 0 24 11 24 24 0 13-11 24-24 24-14 0-25-11-25-24 0-13 11-24 25-24z m94 0c13 0 24 11 24 24 0 13-11 24-24 24-14 0-25-11-25-24 0-13 11-24 25-24z m94 0c13 0 24 11 24 24 0 13-11 24-24 24-14 0-25-11-25-24 0-13 11-24 25-24z m-216-72c-6 0-12-6-12-13l0-48c0-7 6-13 12-13l342 0c6 0 12 6 12 13l0 48c0 7-6 13-12 13z m183-98l0-97 110 0c7 0 12-6 12-13 0-6-5-12-12-12l-244 0c-16 0-16 25 0 25l110 0 0 97-159 0c-20 0-36 16-36 37l0 48c0 21 16 37 36 37l342 0c20 0 36-16 36-37l0-48c0-21-16-37-36-37z m-155 37c13 0 24 11 24 24 0 13-11 24-24 24-14 0-25-11-25-24 0-13 11-24 25-24z m94 0c13 0 24 11 24 24 0 13-11 24-24 24-14 0-25-11-25-24 0-13 11-24 25-24z m94 0c13 0 24 11 24 24 0 13-11 24-24 24-14 0-25-11-25-24 0-13 11-24 25-24z"/>
<glyph glyph-name="spoticon-sort-table" unicode="&#114;" d="M365 308l-108 90-109-90c-11-9-27-8-36 3-9 11-7 27 3 36l142 118 141-118c11-9 12-25 3-36-9-11-25-12-36-3z m-217-129l109-91 108 91c11 9 27 8 36-3 9-11 8-27-3-36l-141-118-142 118c-10 9-12 25-3 36 9 11 25 12 36 3z"/>
<glyph glyph-name="spoticon-package" unicode="&#115;" d="M464 384l-202 117c-1 1-4 1-6 1-2 0-5 0-6-1l-202-117c-3-2-6-6-6-11l0-234c0-5 3-8 6-11l202-117c1-1 4-1 6-1 2 0 5 0 6 1l202 117c3 2 6 6 6 11l0 234c0 5-1 8-6 11z m-208 83l171-99-62-35-170 97z m0-197l-171 98 77 45 171-98z m-182 68l166-95 0-189-166 96z m198-284l0 189 166 96 0-187z"/>
<glyph glyph-name="spoticon-static" unicode="&#116;" d="M256 51c-77 0-146 44-182 110l185 80 202 0c-8-105-97-190-205-190z m-15 410l0-195-180-77c-7 21-12 44-12 67 2 108 87 197 192 205z m176-77c26-33 41-72 44-113l-167 0z m-146 77c49-3 93-23 123-54l-123-115c0 0 0 169 0 169z m-15 31c-131 0-236-105-236-236 0-131 105-236 236-236 131 0 236 105 236 236 0 131-105 236-236 236z"/>
<glyph glyph-name="spoticon-account-logout" unicode="&#117;" d="M118 406c8 7 19 6 26-2 6-8 5-19-2-26-40-33-64-83-64-136 0-98 80-178 178-178 98 0 178 80 178 178 0 53-23 102-62 135-8 7-9 18-2 26 6 8 18 9 26 2 47-41 75-100 75-163 0-118-96-215-215-215-119 0-215 97-215 215 0 64 29 124 77 164z m120 60c0 10 8 19 18 19 10 0 18-9 18-19l0-183c0-10-8-18-18-18-10 0-18 8-18 18z"/>
<glyph glyph-name="spoticon-account-setting" unicode="&#118;" d="M197 313c41 0 73 30 73 67l0 12c0 37-32 67-73 67-41 0-73-30-73-67l0-12c0-37 32-67 73-67z m-59-20c-31 18-51 50-51 87l0 12c0 57 50 104 110 104 60 0 110-47 110-104l0-12c0-38-21-70-53-89 29-11 54-31 73-57 6-8 4-19-4-25-8-6-19-5-25 3-26 35-63 55-103 55-74 0-135-68-135-152l0-31c0-16 11-28 23-28l183 0c10 0 18-8 18-18 0-10-8-18-18-18l-183 0c-33 0-59 29-59 64l0 31c0 82 47 152 114 178z m255-224c-28 0-50 22-50 50 0 28 22 50 50 50 28 0 50-22 50-50 0-28-22-50-50-50z m101 37l0 25-27 0c-2 12-6 23-12 32l19 19-18 17-19-19c-9 7-20 12-31 13l0 26-25 0 0-26c-12-2-23-6-32-13l-19 19-17-17 19-19c-7-9-12-20-13-32l-26 0 0-25 26 0c2-11 6-22 13-31l-19-19 17-18 19 19c9-6 20-11 32-12l0-27 25 0 0 27c11 2 22 6 31 12l19-19 18 18-19 19c6 9 11 20 12 31z"/>
<glyph glyph-name="spoticon-arrow-down-dark" unicode="&#119;" d="M56 364c-12 9-29 6-38-6-9-12-7-29 6-38l235-177 236 177c12 9 15 26 6 38-9 12-26 15-39 6l-203-153z"/>
<glyph glyph-name="spoticon-arrow-left-dark" unicode="&#120;" d="M349 53c9-12 6-29-6-38-12-9-29-7-38 5l-177 236 177 236c9 12 26 14 38 5 12-9 15-26 6-38l-152-203z"/>
<glyph glyph-name="spoticon-trash" unicode="&#121;" d="M74 410l0-299c0-21 17-38 38-38l253 0c21 0 38 17 38 38l0 299z m291-377l-253 0c-43 0-78 35-78 78l0 339 408 0 0-339c0-43-35-78-77-78z m-232 299l0-158c0-11 9-20 19-20 11 0 20 9 20 20l0 158c0 11-9 19-20 19-10 0-19-8-19-19z m88 0l0-158c0-11 8-20 19-20 11 0 20 9 20 20l0 158c0 11-9 19-20 19-11 0-19-8-19-19z m-39 119l-40 0 0-40 193 0 0 40-40 0 0-1-113 0z m-40 0l0 12c0 27 22 49 49 49l95 0c27 0 49-22 49-49l0-12 122 0c11 0 20-9 20-20 0-11-9-20-20-20l-122 0 0-1-193 0 0 1-122 0c-11 0-20 9-20 20 0 11 9 20 20 20z m166-119c0 11 9 19 20 19 11 0 20-8 20-19l0-158c0-11-9-20-20-20-11 0-20 9-20 20z m-126 119l113 0 0 12c0 5-4 10-9 10l-95 0c-5 0-9-5-9-10z"/>
<glyph glyph-name="spoticon-cross" unicode="&#122;" d="M256 286l-226 226-30-30 226-226-226-226 30-30 226 226 226-226 30 30-226 226 226 226-30 30z"/>
<glyph glyph-name="spoticon-collapse-down" unicode="&#65;" d="M501 365l-192-286c-20-29-59-36-88-17-7 4-13 10-18 17l-192 286c-20 28-12 67 17 85 11 7 23 11 35 11l386 0c35 0 63-28 63-62 0-12-4-24-11-34z"/>
<glyph glyph-name="spoticon-collapse-right" unicode="&#66;" d="M147 501l286-192c29-20 36-59 17-88-4-7-10-13-17-18l-286-192c-28-20-67-12-85 17-7 11-11 23-11 35l0 386c0 35 28 63 62 63 12 0 24-4 34-11z"/>
<glyph glyph-name="spoticon-attach" unicode="&#67;" d="M439 78c-46-46-121-47-166-1l-249 249c-32 32-32 85 1 117 32 33 85 33 117 1l249-249c18-19 18-49-1-68-19-19-50-19-68-1l-215 215c-2 2-4 6-4 10 0 3 2 7 4 9 3 3 6 5 10 5 4 0 7-2 10-5l214-214c9-8 21-8 30 0 8 8 8 21 0 29l-249 249c-21 22-56 22-78 0-22-22-22-57 0-79l248-248c36-35 92-35 127 0 36 36 36 92 1 128l-224 224c-3 2-4 6-4 10 0 3 1 7 4 10 2 2 6 4 10 4 3 0 7-2 9-5l225-224c45-45 45-120-1-166z"/>
<glyph glyph-name="spoticon-plus" unicode="&#68;" d="M223 0l63 0 0 224 226 0 0 61-226 0 0 227-63 0 0-227-223 0 0-61 223 0z"/>
</font>
</defs>
</svg>
